<?xml version="1.0" encoding="UTF-8" standalone="no"?><!DOCTYPE svg PUBLIC "-//W3C//DTD SVG 1.1//EN" "http://www.w3.org/Graphics/SVG/1.1/DTD/svg11.dtd"><svg width="100%" height="100%" viewBox="0 0 750 239" version="1.1" xmlns="http://www.w3.org/2000/svg" xmlns:xlink="http://www.w3.org/1999/xlink" xml:space="preserve" xmlns:serif="http://www.serif.com/" style="fill-rule:evenodd;clip-rule:evenodd;stroke-linejoin:round;stroke-miterlimit:2;"><rect id="Artboard1" x="0" y="0" width="749.268" height="238.602" style="fill:none;"/><clipPath id="_clip1"><rect x="0" y="0" width="749.268" height="238.602"/></clipPath><g clip-path="url(#_clip1)"><g><g><path d="M656.496,81.326l-25.416,-0l44.166,110.416l-15,38.334l23.334,-0l57.916,-148.75l-24.583,-0l-30,83.333l-30.417,-83.333Zm-59.166,24.166c5.833,-2.083 11.666,-3.333 17.916,-3.333c3.75,0 7.5,0.417 11.25,1.25l-8.75,-23.333l-2.5,-0c-14.583,-0 -28.75,3.75 -41.666,10.416l-0,96.667l23.75,0l-0,-81.667Zm-62.917,29.167c-0,21.25 -12.917,35 -31.25,35c-18.333,0 -30.833,-13.75 -30.833,-35c-0,-21.25 12.916,-35.417 30.833,-35.417c17.917,0 31.25,13.75 31.25,35.417Zm-86.25,0c-0,32.5 23.333,55 55,55c31.667,0 55.417,-22.5 55.417,-55c-0,-32.5 -23.334,-55.417 -55.417,-55.417c-32.083,0 -55,22.084 -55,55.417Zm-78.333,-33.333l16.25,-0l-0,55.416c-0,24.167 14.583,32.5 32.083,32.5c8.75,0 17.917,-1.666 25.833,-5.833l0,-21.25c-5.833,3.75 -12.5,5.833 -19.583,5.833c-9.167,0 -14.583,-4.166 -14.583,-17.083l-0,-49.583l30.416,-0l0,-20l-30.416,-0l-0,-25.834l-23.75,0l-0,25.834l-16.25,-0l-0,20Zm-74.584,79.583c10,5.833 21.667,8.75 32.917,8.75c23.333,0 40.417,-10 40.417,-32.083c-0,-19.167 -10.834,-28.334 -35,-33.334c-12.5,-3.333 -17.084,-7.083 -17.084,-13.75c0,-6.666 5.417,-12.083 15.834,-12.083c10.833,0.417 21.25,4.167 30,10.833l-0,-21.666c-9.167,-5.417 -20,-8.334 -30.834,-7.917c-21.666,0 -38.333,10.417 -38.333,32.083c-0,18.334 9.583,27.084 31.667,32.084c13.75,3.333 20,6.666 20,15.416c-0,8.75 -7.084,12.084 -17.5,12.084c-11.667,-0.417 -23.334,-4.584 -32.5,-12.084c0.416,-0.833 0.416,21.667 0.416,21.667Zm-17.916,-155.833l-23.75,-0l-0,162.083l23.75,0l-0,-162.083Zm-46.667,-0l-23.75,-0l-0,162.083l23.75,0l-0,-162.083Zm-47.083,56.25l-23.75,-0l-0,87.083c-6.25,0.833 -12.084,1.25 -18.334,1.25c-15.833,0 -25.416,-5.833 -25.416,-21.667l-0,-66.666l-23.75,-0l-0,68.75c-0,29.583 18.75,39.166 49.583,39.166c14.167,0 27.917,-1.666 41.667,-4.583l-0,-103.333Zm-134.167,20l32.5,-0l-0,-20l-32.5,-0l-0,-20c-0,-12.917 5.833,-17.917 15.833,-17.917c6.667,0 12.917,2.083 18.334,5.833l-0,-21.666c-6.25,-3.75 -13.334,-5.417 -20.834,-5.417c-22.5,0 -37.083,12.917 -37.083,39.167l-0,20l-16.667,-0l0,20l16.667,-0l-0,85.833l23.75,0l-0,-85.833Z"/></g></g><rect x="-32.67" y="-11.174" width="800" height="262.5" style="fill:none;"/></g></svg>